<svg xmlns="http://www.w3.org/2000/svg" xmlns:xlink="http://www.w3.org/1999/xlink" width="190" height="190" viewBox="0 0 190 190">
  <defs>
    <clipPath id="clip-Dashboard">
      <rect width="190" height="190"/>
    </clipPath>
  </defs>
  <g id="Dashboard" clip-path="url(#clip-Dashboard)">
    <rect width="190" height="190" fill="#fff"/>
    <g id="Group_43430" data-name="Group 43430" transform="translate(0.801 -28.028)">
      <path id="Vector" d="M13.1,0A13,13,0,0,0,3.813,3.856a13.224,13.224,0,0,0,0,18.58L59.906,78.525a12.993,12.993,0,0,0,10.518,3.856A13.145,13.145,0,0,0,80.065,76.6L99.172,47.851,161.4,110.075A13.138,13.138,0,1,0,179.982,91.5L106.359,17.878a12.993,12.993,0,0,0-10.518-3.856A13.145,13.145,0,0,0,86.2,19.807L67.093,48.552l-44.7-44.7A13,13,0,0,0,13.1,0Z" transform="translate(37.199 215.042) rotate(-90)" fill="#45c667"/>
      <path id="Vector-2" data-name="Vector" d="M48.206,0A13.242,13.242,0,0,0,35.059,13.146v21.91H13.147a13.146,13.146,0,1,0,0,26.292H48.206A13.242,13.242,0,0,0,61.353,48.2V13.146A13.242,13.242,0,0,0,48.206,0Z" transform="translate(89.78 92.381) rotate(-90)" fill="#45c667"/>
    </g>
  </g>
</svg>
