<svg xmlns="http://www.w3.org/2000/svg" xmlns:xlink="http://www.w3.org/1999/xlink" width="55" height="55" viewBox="0 0 55 55">
  <defs>
    <clipPath id="clip-Menu">
      <rect width="55" height="55"/>
    </clipPath>
  </defs>
  <g id="Menu" clip-path="url(#clip-Menu)">
    <rect width="55" height="55" fill="none"/>
    <g id="vuesax_bold_home-hashtag" data-name="vuesax/bold/home-hashtag" transform="translate(-572.001 -204)">
      <g id="home-hashtag" transform="translate(556 188)">
        <path id="Vector" d="M0,24.927H6.254A18.722,18.722,0,0,0,24.927,6.254V0H0Z" transform="translate(118.481 131.448)" fill="#757783"/>
        <path id="Vector-2" data-name="Vector" d="M0,6.254A18.722,18.722,0,0,0,18.673,24.927h6.254V0H0Z" transform="translate(79.391 131.448)" fill="#757783"/>
        <path id="Vector-3" data-name="Vector" d="M0,18.673v6.254H24.927V0H18.673A18.722,18.722,0,0,0,0,18.673Z" transform="translate(79.391 92.452)" fill="#757783"/>
        <path id="Vector-4" data-name="Vector" d="M168.64,45.061,114.858,7.368C100.174-2.921,77.726-2.359,63.6,8.584L16.742,45.154C7.3,52.45,0,67.415,0,79.2v64.537a43.291,43.291,0,0,0,43.119,43.3H143.853a43.211,43.211,0,0,0,43.119-43.211V80.416C187.066,67.789,178.928,52.263,168.64,45.061Zm-29.463,74.544a32.733,32.733,0,0,1-32.643,32.642h-26.1A32.672,32.672,0,0,1,47.8,119.605V93.51A32.733,32.733,0,0,1,80.438,60.868h26.1A32.672,32.672,0,0,1,139.177,93.51v26.1Z" transform="translate(17.869 17.889)" fill="#757783"/>
        <path id="Vector-5" data-name="Vector" d="M6.254,0H0V24.927H24.927V18.673A18.722,18.722,0,0,0,6.254,0Z" transform="translate(118.481 92.452)" fill="#757783"/>
        <path id="Vector-6" data-name="Vector" d="M0,0H222.8V222.8H0Z" transform="translate(222.799 222.799) rotate(180)" fill="none" opacity="0"/>
      </g>
    </g>
  </g>
</svg>
