<svg xmlns="http://www.w3.org/2000/svg" xmlns:xlink="http://www.w3.org/1999/xlink" width="190" height="190" viewBox="0 0 190 190">
  <defs>
    <clipPath id="clip-Menu">
      <rect width="190" height="190"/>
    </clipPath>
  </defs>
  <g id="Menu" clip-path="url(#clip-Menu)">
    <rect width="190" height="190" fill="none"/>
    <g id="vuesax_bold_frame" data-name="vuesax/bold/frame" transform="translate(-126.001 -270)">
      <g id="frame" transform="translate(108 252)">
        <path id="Vector" d="M44.706,0A44.747,44.747,0,0,0,0,44.706C0,68.895,18.918,88.472,43.577,89.319a7.592,7.592,0,0,1,2.071,0h.659A44.673,44.673,0,0,0,44.706,0Z" transform="translate(68.236 18.824)" fill="#757783"/>
        <path id="Vector-2" data-name="Vector" d="M114.072,13.13c-26.259-17.506-69.083-17.506-95.531,0C6.588,21.13,0,31.953,0,43.53S6.588,65.836,18.447,73.742C31.624,82.589,48.942,87.013,66.26,87.013s34.636-4.424,47.812-13.271c11.859-8,18.447-18.73,18.447-30.4C132.425,31.765,125.931,21.036,114.072,13.13Z" transform="translate(46.683 120.049)" fill="#757783"/>
        <path id="Vector-3" data-name="Vector" d="M0,0H225.885V225.885H0Z" transform="translate(225.885 225.885) rotate(180)" fill="none" opacity="0"/>
      </g>
    </g>
  </g>
</svg>
