<svg xmlns="http://www.w3.org/2000/svg" xmlns:xlink="http://www.w3.org/1999/xlink" width="55" height="55" viewBox="0 0 55 55">
  <defs>
    <clipPath id="clip-Dashboard-1">
      <rect width="55" height="55"/>
    </clipPath>
  </defs>
  <g id="Dashboard-1" clip-path="url(#clip-Dashboard-1)">
    <g id="vuesax_bold_element-4" data-name="vuesax/bold/element-4">
      <g id="element-4">
        <path id="Vector" d="M19.479,20.4V4.813C19.479,1.375,18.013,0,14.369,0H5.11C1.467,0,0,1.375,0,4.813V20.4c0,3.438,1.467,4.813,5.11,4.813h9.258C18.013,25.208,19.479,23.833,19.479,20.4Z" transform="translate(29.792 4.583)" fill="#757783"/>
        <path id="Vector-2" data-name="Vector" d="M19.479,4.813V20.4c0,3.438-1.467,4.813-5.11,4.813H5.11C1.467,25.208,0,23.833,0,20.4V4.813C0,1.375,1.467,0,5.11,0h9.258C18.013,0,19.479,1.375,19.479,4.813Z" transform="translate(5.729 25.208)" fill="#757783"/>
        <path id="Vector-3" data-name="Vector" d="M55,55H0V0H55Z" fill="none" opacity="0"/>
        <path id="Vector-4" data-name="Vector" d="M19.479,11.229V4.813C19.479,1.375,18.013,0,14.369,0H5.11C1.467,0,0,1.375,0,4.813v6.417c0,3.438,1.467,4.813,5.11,4.813h9.258C18.013,16.042,19.479,14.667,19.479,11.229Z" transform="translate(29.792 34.375)" fill="#757783"/>
        <path id="Vector-5" data-name="Vector" d="M19.479,11.229V4.813C19.479,1.375,18.013,0,14.369,0H5.11C1.467,0,0,1.375,0,4.813v6.417c0,3.438,1.467,4.813,5.11,4.813h9.258C18.013,16.042,19.479,14.667,19.479,11.229Z" transform="translate(5.729 4.583)" fill="#757783"/>
      </g>
    </g>
  </g>
</svg>

