<svg xmlns="http://www.w3.org/2000/svg" xmlns:xlink="http://www.w3.org/1999/xlink" width="55" height="55" viewBox="0 0 55 55">
  <defs>
    <clipPath id="clip-Excel_active">
      <rect width="55" height="55"/>
    </clipPath>
  </defs>
  <g id="Excel_active" data-name="Excel active" clip-path="url(#clip-Excel_active)">
    <g id="Group_23520" data-name="Group 23520" transform="translate(6424 -4466.5)">
      <rect id="Rectangle_20558" data-name="Rectangle 20558" width="55" height="55" rx="3" transform="translate(-6424 4466.5)" fill="#e9faeb"/>
      <path id="Path_21834" data-name="Path 21834" d="M111.112,105.533c0,.843,0,1.653,0,2.462,0,.856-.419,1.22-1.253,1.065q-5.753-1.072-11.5-2.154l-2.526-.476a.921.921,0,0,1-.833-.985q0-9.762,0-19.525a.916.916,0,0,1,.807-.979L110,82.281a.9.9,0,0,1,1.112.923c.007.765,0,1.529,0,2.294v.336h11.423c.794,0,1.112.322,1.112,1.122v17.455c0,.8-.315,1.121-1.112,1.121H111.112Zm.02-1.805h10.707V87.646H111.126C111.126,94.571,111.132,95.849,111.132,103.728Zm-7.849-9.666c-.089-.1-.153-.162-.214-.231-.651-.744-1.3-1.49-1.953-2.231a.9.9,0,1,0-1.351,1.169c.5.578,1.006,1.152,1.509,1.728q.438.5.876,1.006c-.053.074-.089.128-.129.179q-1.15,1.48-2.3,2.959a.925.925,0,0,0-.226.8.857.857,0,0,0,.666.679.87.87,0,0,0,.956-.364c.615-.786,1.224-1.575,1.837-2.363.13-.167.263-.331.407-.513l.388.44q1.069,1.221,2.136,2.443a.922.922,0,0,0,.936.368.89.89,0,0,0,.453-1.494c-.87-1.01-1.754-2.009-2.631-3.013-.054-.061-.1-.127-.158-.2l1.091-1.4c.584-.751,1.176-1.5,1.748-2.254a.885.885,0,0,0-.519-1.44.914.914,0,0,0-.943.411C105.011,91.843,104.157,92.938,103.283,94.062Z" transform="translate(-6505.819 4398.32)" fill="#28c840"/>
    </g>
  </g>
</svg>
