<svg xmlns="http://www.w3.org/2000/svg" xmlns:xlink="http://www.w3.org/1999/xlink" width="55" height="55" viewBox="0 0 55 55">
  <defs>
    <clipPath id="clip-report_inactive">
      <rect width="55" height="55"/>
    </clipPath>
  </defs>
  <g id="report_inactive" data-name="report inactive" clip-path="url(#clip-report_inactive)">
    <g id="vuesax_outline_clipboard-text" data-name="vuesax/outline/clipboard-text" opacity="0.8">
      <g id="clipboard-text" transform="translate(0 0)">
        <path id="Vector" d="M17.723,3.43H1.715A1.728,1.728,0,0,1,0,1.715,1.728,1.728,0,0,1,1.715,0H17.723a1.728,1.728,0,0,1,1.715,1.715A1.728,1.728,0,0,1,17.723,3.43Z" transform="translate(16.58 26.185)" fill="#fff"/>
        <path id="Vector-2" data-name="Vector" d="M11.732,3.43H1.715A1.728,1.728,0,0,1,0,1.715,1.728,1.728,0,0,1,1.715,0H11.732a1.728,1.728,0,0,1,1.715,1.715A1.728,1.728,0,0,1,11.732,3.43Z" transform="translate(16.58 35.332)" fill="#fff"/>
        <path id="Vector-3" data-name="Vector" d="M15.436,12.578H6.289c-2.2,0-6.289,0-6.289-6.289S4.094,0,6.289,0h9.147c2.2,0,6.289,0,6.289,6.289C21.725,8.484,21.725,12.578,15.436,12.578ZM6.289,3.43c-2.264,0-2.859,0-2.859,2.859s.595,2.859,2.859,2.859h9.147c2.859,0,2.859-.595,2.859-2.859,0-2.859-.595-2.859-2.859-2.859Z" transform="translate(16.58 2.859)" fill="#fff"/>
        <path id="Vector-4" data-name="Vector" d="M29.158,44.55H15.436C2.584,44.55,0,38.65,0,29.114V15.393C0,4.965,3.773.505,13.058.025a1.729,1.729,0,0,1,1.807,1.624,1.7,1.7,0,0,1-1.624,1.784C6.746,3.8,3.43,5.742,3.43,15.393V29.114C3.43,37.575,5.1,41.12,15.436,41.12H29.158c10.337,0,12.006-3.545,12.006-12.006V15.393c0-9.651-3.316-11.594-9.811-11.96a1.73,1.73,0,0,1-1.624-1.807A1.73,1.73,0,0,1,31.536,0c9.285.5,13.058,4.963,13.058,15.368V29.091C44.594,38.65,42.01,44.55,29.158,44.55Z" transform="translate(5.145 7.476)" fill="#fff"/>
        <path id="Vector-5" data-name="Vector" d="M0,0H54.885V54.885H0Z" fill="none" opacity="0"/>
      </g>
    </g>
  </g>
</svg>
