<svg xmlns="http://www.w3.org/2000/svg" xmlns:xlink="http://www.w3.org/1999/xlink" width="135" height="45" viewBox="0 0 135 45">
  <defs>
    <clipPath id="clip-Excel_1">
      <rect width="135" height="45"/>
    </clipPath>
  </defs>
  <g id="Excel_1" data-name="Excel – 1" clip-path="url(#clip-Excel_1)">
    <g id="Group_23597" data-name="Group 23597" transform="translate(-1346 -154)">
      <rect id="Rectangle_19126" data-name="Rectangle 19126" width="135" height="45" rx="3" transform="translate(1346 154)" fill="#16181c"/>
      <text id="Excel" transform="translate(1405 182)" fill="#fff" font-size="16" font-family="SFProDisplay-Regular, SF Pro Display"><tspan x="0" y="0">Excel</tspan></text>
      <path id="Path_21834" data-name="Path 21834" d="M107.268,99.983c0,.642,0,1.259,0,1.875,0,.652-.319.929-.954.811q-4.381-.816-8.761-1.64l-1.923-.362a.7.7,0,0,1-.634-.75q0-7.434,0-14.868a.7.7,0,0,1,.614-.745l10.81-2.026a.682.682,0,0,1,.847.7c.005.582,0,1.164,0,1.747v.256h8.7c.6,0,.847.245.847.855V99.129c0,.612-.24.854-.847.854h-8.7Zm.015-1.375h8.153V86.362h-8.158C107.278,91.635,107.283,92.608,107.283,98.608Zm-5.977-7.361c-.068-.073-.117-.123-.163-.176-.5-.566-.989-1.135-1.488-1.7a.685.685,0,1,0-1.029.891c.381.44.766.877,1.149,1.316l.667.766c-.041.057-.068.1-.1.136q-.875,1.127-1.752,2.253a.7.7,0,0,0-.172.613.653.653,0,0,0,.507.517.662.662,0,0,0,.728-.277c.468-.6.932-1.2,1.4-1.8.1-.127.2-.252.31-.39l.3.335q.814.93,1.627,1.86a.7.7,0,0,0,.713.281.678.678,0,0,0,.345-1.137c-.663-.769-1.335-1.53-2-2.295-.041-.047-.078-.1-.12-.151l.83-1.068c.444-.572.9-1.138,1.331-1.717a.674.674,0,0,0-.4-1.1.7.7,0,0,0-.718.313C102.622,89.557,101.972,90.391,101.306,91.247Z" transform="translate(1268.349 83.895)" fill="#28c840"/>
    </g>
  </g>
</svg>
