<svg id="moon" xmlns="http://www.w3.org/2000/svg" width="55" height="55" viewBox="0 0 55 55">
  <path id="Vector" d="M25.686,49.276c-.39,0-.779,0-1.169-.023C11.684,48.68.959,38.344.065,25.74A25.358,25.358,0,0,1,15.626.578C18.49-.614,20,.3,20.644.967c.642.642,1.535,2.131.344,4.858A18.783,18.783,0,0,0,19.43,13.5,19.635,19.635,0,0,0,38.2,32.684a19.815,19.815,0,0,0,4.377-.3c3.025-.55,4.285.665,4.767,1.444s1.031,2.452-.8,4.927A25.74,25.74,0,0,1,25.686,49.276ZM3.48,25.488A22.353,22.353,0,0,0,43.744,36.74a4.578,4.578,0,0,0,.573-1.008,3.606,3.606,0,0,0-1.146.069,23.985,23.985,0,0,1-5.133.344,23.115,23.115,0,0,1-22.069-22.6,22.356,22.356,0,0,1,1.879-9.075,3.314,3.314,0,0,0,.3-1.031,3.063,3.063,0,0,0-1.169.3A22,22,0,0,0,3.48,25.488Z" transform="translate(2.868 2.86)" fill="#292d32"/>
  <path id="Vector-2" data-name="Vector" d="M0,0H55V55H0Z" fill="none" opacity="0"/>
</svg>
