<svg id="sun" xmlns="http://www.w3.org/2000/svg" width="55" height="55" viewBox="0 0 55 55">
  <path id="Vector" d="M16.615,33.229A16.615,16.615,0,1,1,33.229,16.615,16.627,16.627,0,0,1,16.615,33.229Z" transform="translate(10.885 10.885)" fill="#292d32"/>
  <path id="Vector-2" data-name="Vector" d="M25.208,50.325a2.222,2.222,0,0,1-2.292-2.2v-.183a2.292,2.292,0,0,1,4.583,0A2.379,2.379,0,0,1,25.208,50.325Zm16.363-6.462a2.347,2.347,0,0,1-1.627-.665l-.3-.3a2.285,2.285,0,0,1,3.231-3.231l.3.3a2.282,2.282,0,0,1,0,3.231A2.254,2.254,0,0,1,41.571,43.863Zm-32.725,0A2.347,2.347,0,0,1,7.219,43.2a2.282,2.282,0,0,1,0-3.231l.3-.3A2.285,2.285,0,1,1,10.748,42.9l-.3.3A2.294,2.294,0,0,1,8.846,43.863ZM48.125,27.5h-.183a2.292,2.292,0,0,1,0-4.583,2.379,2.379,0,0,1,2.383,2.292A2.222,2.222,0,0,1,48.125,27.5Zm-45.65,0H2.292a2.292,2.292,0,1,1,0-4.583,2.379,2.379,0,0,1,2.383,2.292A2.222,2.222,0,0,1,2.475,27.5Zm38.8-16.065a2.347,2.347,0,0,1-1.627-.665,2.282,2.282,0,0,1,0-3.231l.3-.3a2.285,2.285,0,0,1,3.231,3.231l-.3.3A2.254,2.254,0,0,1,41.273,11.435Zm-32.129,0a2.347,2.347,0,0,1-1.627-.665l-.3-.321A2.285,2.285,0,0,1,10.45,7.219l.3.3a2.282,2.282,0,0,1,0,3.231A2.224,2.224,0,0,1,9.144,11.435Zm16.065-6.76a2.222,2.222,0,0,1-2.292-2.2V2.292a2.292,2.292,0,1,1,4.583,0A2.379,2.379,0,0,1,25.208,4.675Z" transform="translate(2.292 2.292)" fill="#292d32"/>
  <path id="Vector-3" data-name="Vector" d="M0,0H55V55H0Z" fill="none" opacity="0"/>
</svg>
