<svg xmlns="http://www.w3.org/2000/svg" xmlns:xlink="http://www.w3.org/1999/xlink" width="55" height="55" viewBox="0 0 55 55">
  <defs>
    <clipPath id="clip-map_active_1">
      <rect width="55" height="55"/>
    </clipPath>
  </defs>
  <g id="map_active_1" data-name="map active – 1" clip-path="url(#clip-map_active_1)">
    <g id="vuesax_outline_map" data-name="vuesax/outline/map">
      <g id="map" transform="translate(0 0)">
        <path id="Vector" d="M32.268,43.053a6.454,6.454,0,0,1-2.767-.595L17.495,36.444a3.455,3.455,0,0,0-2.7.069L9.4,39.6c-2.333,1.326-4.734,1.509-6.54.435C1.029,38.982,0,36.833,0,34.134V11.906A6.766,6.766,0,0,1,3.179,6.44l9.9-5.671A6.738,6.738,0,0,1,19,.609L31.01,6.623a3.56,3.56,0,0,0,2.7-.069L39.083,3.49c2.333-1.326,4.734-1.509,6.54-.435,1.83,1.052,2.859,3.2,2.859,5.9V31.207A6.766,6.766,0,0,1,45.3,36.673l-9.9,5.671A6.943,6.943,0,0,1,32.268,43.053Z" transform="translate(3.522 5.909)" fill="#fff"/>
        <path id="Vector-2" data-name="Vector" d="M1.715,33.16A1.728,1.728,0,0,1,0,31.444V1.715A1.728,1.728,0,0,1,1.715,0,1.728,1.728,0,0,1,3.43,1.715V31.444A1.728,1.728,0,0,1,1.715,33.16Z" transform="translate(17.86 7.432)" fill="#0c2550"/>
        <path id="Vector-3" data-name="Vector" d="M1.715,34.029A1.728,1.728,0,0,1,0,32.313V1.715A1.728,1.728,0,0,1,1.715,0,1.728,1.728,0,0,1,3.43,1.715v30.6A1.728,1.728,0,0,1,1.715,34.029Z" transform="translate(34.257 13.424)" fill="#0c2550"/>
        <path id="Vector-4" data-name="Vector" d="M0,0H54.885V54.885H0Z" fill="none" opacity="0"/>
      </g>
    </g>
  </g>
</svg>
