<svg xmlns="http://www.w3.org/2000/svg" xmlns:xlink="http://www.w3.org/1999/xlink" width="190" height="190" viewBox="0 0 190 190">
  <defs>
    <clipPath id="clip-Menu">
      <rect width="190" height="190"/>
    </clipPath>
  </defs>
  <g id="Menu" clip-path="url(#clip-Menu)">
    <rect width="190" height="190" fill="none"/>
    <g id="folder" transform="translate(-15.999 -16)">
      <path id="Vector" d="M182.7,67.341H0V41.055A41.068,41.068,0,0,1,41.055,0H62.6c15.14,0,19.877,4.923,25.915,13l13,17.277c2.879,3.808,3.251,4.273,8.638,4.273h25.915A49.555,49.555,0,0,1,182.7,67.341Z" transform="translate(18.577 18.577)" fill="#fff"/>
      <path id="Vector-2" data-name="Vector" d="M185.583,0l.186,54.8A49.75,49.75,0,0,1,136.076,104.5H49.693A49.75,49.75,0,0,1,0,54.8V0Z" transform="translate(18.577 99.848)" fill="#fff"/>
      <path id="Vector-3" data-name="Vector" d="M0,0H222.923V222.923H0Z" transform="translate(222.923 222.923) rotate(180)" fill="none" opacity="0"/>
    </g>
  </g>
</svg>
