<svg xmlns="http://www.w3.org/2000/svg" xmlns:xlink="http://www.w3.org/1999/xlink" width="190" height="190" viewBox="0 0 190 190">
  <defs>
    <clipPath id="clip-Menu">
      <rect width="190" height="190"/>
    </clipPath>
  </defs>
  <g id="Menu" clip-path="url(#clip-Menu)">
    <rect width="190" height="190" fill="none"/>
    <g id="vuesax_bold_shop-add" data-name="vuesax/bold/shop-add" transform="translate(-765 -203)">
      <g id="shop-add" transform="translate(750 188)">
        <path id="Vector" d="M0,0H219.2V219.2H0Z" fill="none" opacity="0"/>
        <path id="Vector-2" data-name="Vector" d="M43.932,85.945A43.949,43.949,0,0,1,0,42.014V16.075a8.775,8.775,0,0,1,11.782-8.22A39.535,39.535,0,0,0,19,9.59a20.128,20.128,0,0,0,3.288.365,32.45,32.45,0,0,0,4.2.274A44.925,44.925,0,0,0,54.618,0,42.638,42.638,0,0,0,82.383,10.229,41.84,41.84,0,0,0,110.057.091a44.365,44.365,0,0,0,27.765,10.138,38.69,38.69,0,0,0,4.658-.274,30.232,30.232,0,0,0,3.014-.365,41,41,0,0,0,7.672-1.918,8.773,8.773,0,0,1,11.6,8.22V42.014a43.949,43.949,0,0,1-43.932,43.932Z" transform="translate(27.309 116.359)" fill="#fff"/>
        <path id="Vector-3" data-name="Vector" d="M182.483,61.559l-2.557-24.295C176.273,10.777,164.217,0,138.461,0H44.022C18.265,0,6.3,10.777,2.556,37.538L.181,61.65A35.814,35.814,0,0,0,7.4,87.315,35.15,35.15,0,0,0,35.71,100.924,35.911,35.911,0,0,0,64.024,86.493a33.472,33.472,0,0,0,54.8.365,36.013,36.013,0,0,0,28.131,14.065,34.9,34.9,0,0,0,28.77-14.339A35.452,35.452,0,0,0,182.483,61.559ZM105.032,53.7h-6.85v7.124a6.85,6.85,0,1,1-13.7,0V53.7h-6.85a6.85,6.85,0,1,1,0-13.7h6.85V33.519a6.85,6.85,0,1,1,13.7,0V40h6.85a6.85,6.85,0,1,1,0,13.7Z" transform="translate(18.268 16.897)" fill="#fff"/>
        <path id="Vector-4" data-name="Vector" d="M0,0H219.2V219.2H0Z" transform="translate(219.201 219.201) rotate(180)" fill="none" opacity="0"/>
      </g>
    </g>
  </g>
</svg>
